<svg width="32" height="32" viewBox="0 0 32 32" fill="none" xmlns="http://www.w3.org/2000/svg">
<path d="M14.4763 9.33333L6.85722 22.6667M8.00008 25.3333H23.9998M25.1429 22.6667L17.5239 9.33333M4.80008 28H5.86675C6.61348 28 6.98685 28 7.27207 27.8547C7.52295 27.7268 7.72693 27.5229 7.85476 27.272C8.00008 26.9868 8.00008 26.6134 8.00008 25.8667V24.8C8.00008 24.0533 8.00008 23.6799 7.85476 23.3947C7.72693 23.1438 7.52295 22.9398 7.27207 22.812C6.98685 22.6667 6.61348 22.6667 5.86675 22.6667H4.80008C4.05334 22.6667 3.67998 22.6667 3.39476 22.812C3.14388 22.9398 2.9399 23.1438 2.81207 23.3947C2.66675 23.6799 2.66675 24.0533 2.66675 24.8V25.8667C2.66675 26.6134 2.66675 26.9868 2.81207 27.272C2.9399 27.5229 3.14388 27.7268 3.39476 27.8547C3.67998 28 4.05334 28 4.80008 28ZM26.1334 28H27.2001C27.9468 28 28.3202 28 28.6054 27.8547C28.8563 27.7268 29.0603 27.5229 29.1881 27.272C29.3334 26.9868 29.3334 26.6134 29.3334 25.8667V24.8C29.3334 24.0533 29.3334 23.6799 29.1881 23.3947C29.0603 23.1438 28.8563 22.9398 28.6054 22.812C28.3202 22.6667 27.9468 22.6667 27.2001 22.6667H26.1334C25.3867 22.6667 25.0133 22.6667 24.7281 22.812C24.4772 22.9398 24.2732 23.1438 24.1454 23.3947C24.0001 23.6799 24.0001 24.0533 24.0001 24.8V25.8667C24.0001 26.6134 24.0001 26.9868 24.1454 27.272C24.2732 27.5229 24.4772 27.7268 24.7281 27.8547C25.0133 28 25.3867 28 26.1334 28ZM15.4667 9.33333H16.5334C17.2802 9.33333 17.6535 9.33333 17.9387 9.18801C18.1896 9.06018 18.3936 8.8562 18.5214 8.60532C18.6667 8.32011 18.6667 7.94674 18.6667 7.2V6.13333C18.6667 5.3866 18.6667 5.01323 18.5214 4.72801C18.3936 4.47713 18.1896 4.27316 17.9387 4.14532C17.6535 4 17.2801 4 16.5334 4H15.4667C14.72 4 14.3466 4 14.0614 4.14532C13.8105 4.27316 13.6066 4.47713 13.4787 4.72801C13.3334 5.01323 13.3334 5.3866 13.3334 6.13333V7.2C13.3334 7.94674 13.3334 8.32011 13.4787 8.60532C13.6066 8.8562 13.8105 9.06018 14.0614 9.18801C14.3466 9.33333 14.72 9.33333 15.4667 9.33333Z" stroke="#292B2D" stroke-width="2" stroke-linecap="round" stroke-linejoin="round"/>
</svg>
