<svg width="24" height="24" viewBox="0 0 24 24" fill="none" xmlns="http://www.w3.org/2000/svg">
<g clip-path="url(#clip0_11_3563)">
<path d="M18.4242 16.3528C18.4242 13.1231 16.2711 10.2832 13.1713 9.41083V3.56396H9.27341V9.41083C6.17364 10.3018 4.02051 13.1231 4.02051 16.3528V16.4271H18.4242V16.3528Z" fill="#DFF1FF"/>
<path d="M18.4244 16.798H4.02064C3.81647 16.798 3.64941 16.6309 3.64941 16.4267V16.3525C3.64941 13.0671 5.80255 10.1344 8.90231 9.15062V3.56361C8.90231 3.35944 9.06937 3.19238 9.27354 3.19238H13.1529C13.3571 3.19238 13.5241 3.35944 13.5241 3.56361V9.15062C16.6425 10.1529 18.7956 13.0671 18.7956 16.3525V16.4082C18.7956 16.6123 18.6285 16.798 18.4244 16.798ZM4.39187 16.0555H18.0346C17.9232 13.1228 15.9 10.5799 13.0601 9.78171C12.893 9.74459 12.7817 9.5961 12.7817 9.42904V3.93484H9.64477V9.42904C9.64477 9.5961 9.5334 9.74459 9.36635 9.78171C6.54501 10.5799 4.5218 13.1413 4.39187 16.0555Z" fill="#292B2D"/>
<path d="M13.1156 16.4269V16.3526C13.1156 15.4988 12.4289 14.812 11.575 14.812C10.7212 14.812 10.0344 15.4988 10.0344 16.3526V16.4269H4.02051C4.02051 20.399 7.25021 23.6287 11.2224 23.6287C15.1945 23.6287 18.4242 20.399 18.4242 16.4269H13.1156Z" fill="#FF58B4"/>
<path d="M11.2225 24.0001C9.1993 24.0001 7.30603 23.2205 5.87679 21.7913C4.429 20.3435 3.64941 18.4502 3.64941 16.427C3.64941 16.3342 3.68654 16.2414 3.76078 16.1671C3.83503 16.0929 3.92784 16.0558 4.02064 16.0558H9.70046C9.84895 15.1463 10.6285 14.4409 11.5752 14.4409C12.5218 14.4409 13.3199 15.1463 13.4499 16.0558H18.4058C18.4986 16.0558 18.5914 16.0929 18.6657 16.1671C18.7399 16.2414 18.777 16.3342 18.777 16.427C18.7956 20.6033 15.3988 24.0001 11.2225 24.0001ZM4.41043 16.7982C4.59605 20.3992 7.58445 23.2576 11.2225 23.2576C14.8606 23.2576 17.8489 20.3992 18.0346 16.7982H13.1158C12.9116 16.7982 12.7445 16.6312 12.7445 16.427V16.3528C12.7445 15.7217 12.2248 15.1834 11.5752 15.1834C10.9255 15.1834 10.4058 15.7031 10.4058 16.3528V16.427C10.4058 16.6312 10.2387 16.7982 10.0346 16.7982H4.41043Z" fill="#292B2D"/>
<path d="M7.89985 19.8236C7.2502 19.8236 6.71191 19.2853 6.71191 18.6357C6.71191 17.986 7.2502 17.4478 7.89985 17.4478C8.5495 17.4478 9.08778 17.986 9.08778 18.6357C9.08778 19.2853 8.56806 19.8236 7.89985 19.8236ZM7.89985 18.1717C7.65855 18.1717 7.45437 18.3758 7.45437 18.6171C7.45437 18.8584 7.65855 19.0626 7.89985 19.0626C8.14115 19.0626 8.34533 18.8584 8.34533 18.6171C8.34533 18.3758 8.15971 18.1717 7.89985 18.1717ZM14.1736 21.3085C13.524 21.3085 12.9857 20.7703 12.9857 20.1206C12.9857 19.471 13.524 18.9327 14.1736 18.9327C14.8233 18.9327 15.3616 19.471 15.3616 20.1206C15.3616 20.7703 14.8233 21.3085 14.1736 21.3085ZM14.1736 19.6566C13.9323 19.6566 13.7282 19.8607 13.7282 20.102C13.7282 20.3433 13.9323 20.5475 14.1736 20.5475C14.4149 20.5475 14.6191 20.3433 14.6191 20.102C14.6191 19.8607 14.4149 19.6566 14.1736 19.6566ZM10.1087 21.9025C9.77456 21.9025 9.49614 21.6241 9.49614 21.29C9.49614 20.9559 9.77456 20.6775 10.1087 20.6775C10.4428 20.6775 10.7212 20.9559 10.7212 21.29C10.7212 21.6241 10.4242 21.9025 10.1087 21.9025ZM10.1087 21.1601C10.0344 21.1601 9.96017 21.2157 9.96017 21.3085C9.96017 21.4014 10.0159 21.457 10.1087 21.457C10.2015 21.457 10.2572 21.4014 10.2572 21.3085C10.2572 21.2157 10.1829 21.1601 10.1087 21.1601Z" fill="#292B2D"/>
<path d="M12.0576 1.15061C12.0576 1.31307 12.1222 1.46887 12.237 1.58374C12.3519 1.69861 12.5077 1.76314 12.6701 1.76314C12.8326 1.76314 12.9884 1.69861 13.1033 1.58374C13.2181 1.46887 13.2827 1.31307 13.2827 1.15061C13.2827 0.988162 13.2181 0.832363 13.1033 0.717492C12.9884 0.60262 12.8326 0.538086 12.6701 0.538086C12.5077 0.538086 12.3519 0.60262 12.237 0.717492C12.1222 0.832363 12.0576 0.988162 12.0576 1.15061Z" fill="#FF58B4"/>
<path d="M12.6703 2.1345C12.132 2.1345 11.6865 1.68903 11.6865 1.15074C11.6865 0.612461 12.132 0.185547 12.6703 0.185547C13.2086 0.185547 13.654 0.631023 13.654 1.16931C13.654 1.70759 13.2086 2.1345 12.6703 2.1345ZM12.6703 0.928006C12.5404 0.928006 12.429 1.03938 12.429 1.16931C12.429 1.29924 12.5404 1.4106 12.6703 1.4106C12.8002 1.4106 12.9116 1.29924 12.9116 1.16931C12.9116 1.03938 12.8002 0.928006 12.6703 0.928006Z" fill="#292B2D"/>
<path d="M17.5146 1.57759C17.5146 1.73603 17.5459 1.89292 17.6065 2.0393C17.6671 2.18568 17.756 2.31868 17.868 2.43071C17.9801 2.54275 18.1131 2.63162 18.2594 2.69225C18.4058 2.75288 18.5627 2.78409 18.7211 2.78409C18.8796 2.78409 19.0365 2.75288 19.1829 2.69225C19.3292 2.63162 19.4622 2.54275 19.5743 2.43071C19.6863 2.31868 19.7752 2.18568 19.8358 2.0393C19.8964 1.89292 19.9276 1.73603 19.9276 1.57759C19.9276 1.41915 19.8964 1.26226 19.8358 1.11588C19.7752 0.969505 19.6863 0.836502 19.5743 0.724468C19.4622 0.612435 19.3292 0.523565 19.1829 0.462933C19.0365 0.402301 18.8796 0.371094 18.7211 0.371094C18.5627 0.371094 18.4058 0.402301 18.2594 0.462933C18.1131 0.523565 17.9801 0.612435 17.868 0.724468C17.756 0.836502 17.6671 0.969505 17.6065 1.11588C17.5459 1.26226 17.5146 1.41915 17.5146 1.57759Z" fill="#FF58B4"/>
<path d="M18.7211 3.15545C17.8487 3.15545 17.1434 2.45012 17.1434 1.57773C17.1434 0.705336 17.8487 0 18.7211 0C19.5935 0 20.2989 0.705336 20.2989 1.57773C20.2989 2.45012 19.5935 3.15545 18.7211 3.15545ZM18.7211 0.742459C18.2571 0.742459 17.8859 1.11369 17.8859 1.57773C17.8859 2.04176 18.2571 2.41299 18.7211 2.41299C19.1852 2.41299 19.5564 2.04176 19.5564 1.57773C19.5564 1.11369 19.1852 0.742459 18.7211 0.742459ZM15.6585 3.76798C15.2316 3.76798 14.8789 3.41531 14.8789 3.00696C14.8789 2.59861 15.2316 2.24594 15.6585 2.24594C16.0854 2.24594 16.4195 2.59861 16.4195 3.00696C16.4195 3.41531 16.0854 3.76798 15.6585 3.76798ZM15.6585 2.96984C15.6399 2.96984 15.6214 2.9884 15.6214 2.9884C15.6214 3.02552 15.6771 3.02552 15.6771 2.9884C15.6956 2.9884 15.6771 2.96984 15.6585 2.96984Z" fill="#292B2D"/>
<path d="M5.83949 16.6869C5.63531 16.6869 5.46826 16.5198 5.46826 16.3156C5.46826 13.0674 8.12255 10.4131 11.3708 10.4131C11.575 10.4131 11.742 10.5801 11.742 10.7843C11.742 10.9885 11.575 11.1555 11.3708 11.1555C8.53091 11.1555 6.21072 13.4757 6.21072 16.3156C6.21072 16.5198 6.04367 16.6869 5.83949 16.6869Z" fill="#292B2D"/>
<path d="M18.0532 18.2459H14.5265C14.3223 18.2459 14.1553 18.0788 14.1553 17.8746C14.1553 17.6705 14.3223 17.5034 14.5265 17.5034H18.0532C18.2574 17.5034 18.4244 17.6705 18.4244 17.8746C18.4244 18.0788 18.2574 18.2459 18.0532 18.2459Z" fill="#292B2D"/>
<path d="M11.5935 18.246C11.3893 18.246 11.2222 18.079 11.2222 17.8748C11.2222 17.6706 11.3893 17.5036 11.5935 17.5036C12.2246 17.5036 12.7628 16.9838 12.7628 16.3342C12.7628 15.6845 12.2431 15.1648 11.5935 15.1648C10.9438 15.1648 10.4241 15.6845 10.4241 16.3342C10.4241 16.5384 10.257 16.7054 10.0529 16.7054C9.84869 16.7054 9.68164 16.5384 9.68164 16.3342C9.68164 15.2762 10.5355 14.4224 11.5935 14.4224C12.6515 14.4224 13.5053 15.2762 13.5053 16.3342C13.5053 17.3922 12.6329 18.246 11.5935 18.246Z" fill="#292B2D"/>
<path d="M9.51499 3.19238H13.0788C13.5985 3.19238 14.0254 3.6193 14.0254 4.13902C14.0254 4.65874 13.5985 5.08565 13.0788 5.08565H9.51499C8.99527 5.08565 8.56836 4.65874 8.56836 4.13902C8.56836 3.60074 8.99527 3.19238 9.51499 3.19238Z" fill="#DFF1FF"/>
<path d="M13.0784 5.43847H9.51464C8.79074 5.43847 8.19678 4.8445 8.19678 4.1206C8.19678 3.3967 8.79074 2.80273 9.51464 2.80273H13.0784C13.8023 2.80273 14.3963 3.3967 14.3963 4.1206C14.3778 4.86306 13.8023 5.43847 13.0784 5.43847ZM9.51464 3.56376C9.1991 3.56376 8.93924 3.82362 8.93924 4.13916C8.93924 4.45471 9.1991 4.71457 9.51464 4.71457H13.0784C13.394 4.71457 13.6539 4.45471 13.6539 4.13916C13.6539 3.82362 13.394 3.56376 13.0784 3.56376H9.51464Z" fill="#292B2D"/>
</g>
<defs>
<clipPath id="clip0_11_3563">
<rect width="24" height="24" fill="white"/>
</clipPath>
</defs>
</svg>
