<svg width="24" height="24" viewBox="0 0 24 24" fill="none" xmlns="http://www.w3.org/2000/svg">
<g clip-path="url(#clip0_42_151)">
<path d="M4.6792 16.0043L9.37289 13.3707L9.45181 13.142L9.37289 13.0148H9.14416L8.35973 12.9664L5.67785 12.894L3.35195 12.7973L1.09852 12.6765L0.531544 12.5557L0 11.855L0.0547657 11.5055L0.531544 11.185L1.2145 11.2446L2.72376 11.3476L4.98846 11.5039L6.63141 11.6005L9.06524 11.8534H9.45181L9.50658 11.6972L9.3745 11.6005L9.27141 11.5039L6.92779 9.9157L4.39087 8.23732L3.06201 7.27087L2.34362 6.78121L1.98121 6.32214L1.82497 5.32027L2.47732 4.60188L3.35356 4.66147L3.57745 4.72107L4.46497 5.40403L6.36081 6.87141L8.83651 8.69476L9.19893 8.99597L9.34389 8.89289L9.36161 8.8204L9.19893 8.54819L7.85235 6.11436L6.41557 3.63866L5.77611 2.61261L5.60698 1.99731C5.54738 1.74443 5.50389 1.53181 5.50389 1.27248L6.24644 0.26416L6.65718 0.13208L7.64779 0.26416L8.06497 0.626577L8.68027 2.03436L9.67731 4.25074L11.2236 7.26443L11.6762 8.15839L11.9179 8.98631L12.0081 9.23919H12.1643V9.09423L12.2915 7.39651L12.5267 5.31221L12.7554 2.63033L12.8344 1.8749L13.2081 0.969663L13.9506 0.48L14.5305 0.757046L15.0073 1.44L14.9412 1.88134L14.6577 3.72403L14.102 6.61047L13.7396 8.54335H13.9506L14.1922 8.30174L15.1699 7.00349L16.8129 4.9498L17.5377 4.13476L18.3834 3.23436L18.9262 2.80591H19.9522L20.7077 3.92859L20.3694 5.08832L19.3128 6.42845L18.4365 7.56403L17.1801 9.2553L16.3957 10.6083L16.4682 10.7162L16.655 10.6985L19.4932 10.0945L21.0266 9.81745L22.8564 9.50335L23.6843 9.88993L23.7745 10.283L23.4491 11.0867L21.4921 11.5699L19.1968 12.029L15.7788 12.8376L15.7369 12.8682L15.7852 12.9278L17.3251 13.0728L17.9839 13.1082H19.5962L22.5987 13.3321L23.3831 13.8507L23.8534 14.4854L23.7745 14.9686L22.5664 15.5839L20.9364 15.1973L17.1318 14.2921L15.8271 13.9667H15.6467V14.0746L16.734 15.1377L18.7264 16.9369L21.2215 19.2564L21.3487 19.8298L21.0282 20.2824L20.6899 20.2341L18.4977 18.5847L17.6521 17.8421L15.7369 16.2298H15.6097V16.3989L16.051 17.0448L18.3817 20.5482L18.5026 21.6226L18.3334 21.9721L17.7294 22.1831L17.0658 22.0623L15.7015 20.1471L14.2937 17.9903L13.1581 16.0574L13.0196 16.1364L12.3495 23.3541L12.0354 23.723L11.3106 24L10.7066 23.5409L10.386 22.7984L10.7066 21.331L11.0932 19.4158L11.4072 17.8937L11.6907 16.0027L11.8599 15.3745L11.8486 15.3326L11.7101 15.3503L10.2846 17.3074L8.11651 20.2373L6.40107 22.0736L5.99034 22.2362L5.27839 21.8674L5.34443 21.2086L5.74228 20.6223L8.11651 17.6021L9.54846 15.7305L10.473 14.6497L10.4666 14.4934H10.4118L4.10577 18.5879L2.98309 18.7329L2.49987 18.2803L2.55946 17.5377L2.78819 17.2961L4.68403 15.9914L4.67758 15.9979L4.6792 16.0043Z" fill="#D97757"/>
</g>
<defs>
<clipPath id="clip0_42_151">
<rect width="24" height="24" fill="white"/>
</clipPath>
</defs>
</svg>
