<svg width="32" height="32" viewBox="0 0 32 32" fill="none" xmlns="http://www.w3.org/2000/svg">
<path d="M10 10.6667V12.6667M22 10.6667V12.6667M14.6667 16.8001C15.7333 16.8001 16.6667 15.8668 16.6667 14.8001V10.6667M20.2669 20.2666C17.8669 22.6666 14.0003 22.6666 11.6003 20.2666M4 10.4L4 21.6C4 23.8402 4 24.9603 4.43597 25.816C4.81947 26.5686 5.43139 27.1805 6.18404 27.564C7.03968 28 8.15979 28 10.4 28H21.6C23.8402 28 24.9603 28 25.816 27.564C26.5686 27.1805 27.1805 26.5686 27.564 25.816C28 24.9603 28 23.8402 28 21.6V10.4C28 8.15979 28 7.03969 27.564 6.18404C27.1805 5.43139 26.5686 4.81947 25.816 4.43598C24.9603 4 23.8402 4 21.6 4L10.4 4C8.15979 4 7.03969 4 6.18404 4.43597C5.43139 4.81947 4.81947 5.43139 4.43597 6.18404C4 7.03968 4 8.15979 4 10.4Z" stroke="#292B2D" stroke-width="2" stroke-linecap="round" stroke-linejoin="round"/>
</svg>
