<svg width="32" height="32" viewBox="0 0 32 32" fill="none" xmlns="http://www.w3.org/2000/svg">
<path d="M7.74251 24.7072C7.76612 24.6674 7.79031 24.6278 7.81507 24.5885C9.62106 21.7175 10.6665 18.3224 10.6665 14.6667C10.6665 11.7211 13.0544 9.33333 15.9999 9.33333C18.9454 9.33333 21.3332 11.7211 21.3332 14.6667C21.3332 16.0227 21.2409 17.3581 21.0622 18.6667M18.239 27.7915C19.0546 26.1635 19.7232 24.4492 20.2276 22.6667M25.3462 24.1759C26.2063 21.1542 26.6667 17.9642 26.6667 14.6667C26.6667 8.77563 21.891 4 16 4C14.0571 4 12.2356 4.51944 10.6667 5.42701M4 20.4855C4.85421 18.7272 5.33333 16.7529 5.33333 14.6667C5.33333 12.7238 5.85277 10.9023 6.76034 9.33333M15.9998 14.6667C15.9998 19.3563 14.6548 23.7317 12.3294 27.4283" stroke="#292B2D" stroke-width="2" stroke-linecap="round" stroke-linejoin="round"/>
</svg>
