<svg width="24" height="24" viewBox="0 0 24 24" fill="none" xmlns="http://www.w3.org/2000/svg">
<g clip-path="url(#clip0_42_139)">
<path d="M21.8191 2.57104H11.5C11.5 3.80648 11.9908 4.99132 12.8644 5.8649C13.7379 6.73849 14.9228 7.22927 16.1582 7.22927H18.0591V9.06462C18.0608 11.6349 20.144 13.7182 22.7143 13.7199V3.46623C22.7143 2.97197 22.3136 2.57104 21.8191 2.57104Z" fill="#2684FF"/>
<path d="M16.7136 7.71265H6.39453C6.39613 10.283 8.47932 12.3663 11.0497 12.3679H12.9506V14.2092C12.9539 16.7795 15.0385 18.8613 17.6089 18.8613V8.608C17.6089 8.11357 17.208 7.71265 16.7136 7.71265Z" fill="url(#paint0_linear_42_139)"/>
<path d="M11.6048 12.8513H1.28564C1.28564 15.424 3.37128 17.5095 5.94387 17.5095H7.85073V19.3448C7.85241 21.9128 9.932 23.9951 12.5001 24V13.7466C12.5001 13.2522 12.0992 12.8513 11.6048 12.8513Z" fill="url(#paint1_linear_42_139)"/>
</g>
<defs>
<linearGradient id="paint0_linear_42_139" x1="2813.3" y1="12.8454" x2="1700.08" y2="1313.81" gradientUnits="userSpaceOnUse">
<stop offset="0.18" stop-color="#0052CC"/>
<stop offset="1" stop-color="#2684FF"/>
</linearGradient>
<linearGradient id="paint1_linear_42_139" x1="2883.63" y1="27.3569" x2="1595.92" y2="1446.3" gradientUnits="userSpaceOnUse">
<stop offset="0.18" stop-color="#0052CC"/>
<stop offset="1" stop-color="#2684FF"/>
</linearGradient>
<clipPath id="clip0_42_139">
<rect width="24" height="24" fill="white"/>
</clipPath>
</defs>
</svg>
