<svg width="24" height="24" viewBox="0 0 24 24" fill="none" xmlns="http://www.w3.org/2000/svg">
<g clip-path="url(#clip0_21_54)">
<path d="M0.374023 13.5119C0.374023 14.8385 0.635324 16.1521 1.14301 17.3778C1.65069 18.6035 2.39481 19.7171 3.33289 20.6552C4.27096 21.5933 5.38462 22.3374 6.61027 22.8451C7.83593 23.3528 9.14958 23.6141 10.4762 23.6141C11.8029 23.6141 13.1165 23.3528 14.3422 22.8451C15.5678 22.3374 16.6815 21.5933 17.6195 20.6552C18.5576 19.7171 19.3017 18.6035 19.8094 17.3778C20.3171 16.1521 20.5784 14.8385 20.5784 13.5119C20.5784 12.1852 20.3171 10.8716 19.8094 9.64592C19.3017 8.42026 18.5576 7.30661 17.6195 6.36853C16.6815 5.43046 15.5678 4.68633 14.3422 4.17865C13.1165 3.67097 11.8029 3.40967 10.4762 3.40967C9.14958 3.40967 7.83593 3.67097 6.61027 4.17865C5.38462 4.68633 4.27096 5.43046 3.33289 6.36853C2.39481 7.30661 1.65069 8.42026 1.14301 9.64592C0.635324 10.8716 0.374023 12.1852 0.374023 13.5119Z" fill="white"/>
<path d="M10.4763 23.9883C4.69565 23.9883 0 19.2927 0 13.512C0 7.73129 4.69565 3.03564 10.4763 3.03564C16.257 3.03564 20.9527 7.73129 20.9527 13.512C20.9527 19.2927 16.257 23.9883 10.4763 23.9883ZM10.4763 3.78395C5.10722 3.78395 0.748311 8.14286 0.748311 13.512C0.748311 18.8811 5.10722 23.24 10.4763 23.24C15.8455 23.24 20.2044 18.8811 20.2044 13.512C20.2044 8.14286 15.8455 3.78395 10.4763 3.78395Z" fill="#292B2D"/>
<path d="M2.88086 13.5119C2.88086 14.5093 3.07732 15.497 3.45902 16.4185C3.84072 17.34 4.40019 18.1773 5.10549 18.8826C5.81078 19.5879 6.64809 20.1473 7.5696 20.529C8.49111 20.9107 9.47878 21.1072 10.4762 21.1072C11.4736 21.1072 12.4613 20.9107 13.3828 20.529C14.3043 20.1473 15.1416 19.5879 15.8469 18.8826C16.5522 18.1773 17.1117 17.34 17.4934 16.4185C17.8751 15.497 18.0716 14.5093 18.0716 13.5119C18.0716 12.5144 17.8751 11.5268 17.4934 10.6052C17.1117 9.68373 16.5522 8.84642 15.8469 8.14113C15.1416 7.43584 14.3043 6.87637 13.3828 6.49467C12.4613 6.11296 11.4736 5.9165 10.4762 5.9165C9.47878 5.9165 8.49111 6.11296 7.5696 6.49467C6.64809 6.87637 5.81078 7.43584 5.10549 8.14113C4.40019 8.84642 3.84072 9.68373 3.45902 10.6052C3.07732 11.5268 2.88086 12.5144 2.88086 13.5119Z" fill="#F86C6C"/>
<path d="M10.4763 21.5C6.08002 21.5 2.50684 17.9269 2.50684 13.5305C2.50684 9.13422 6.08002 5.56104 10.4763 5.56104C14.8727 5.56104 18.4459 9.13422 18.4459 13.5305C18.4459 17.9269 14.8727 21.5 10.4763 21.5ZM10.4763 6.29064C6.49159 6.29064 3.25515 9.52708 3.25515 13.5118C3.25515 17.4966 6.49159 20.733 10.4763 20.733C14.4611 20.733 17.6975 17.4966 17.6975 13.5118C17.6975 9.52708 14.4611 6.29064 10.4763 6.29064Z" fill="#292B2D"/>
<path d="M5.59375 13.5119C5.59375 14.8069 6.10818 16.0488 7.02387 16.9645C7.93956 17.8802 9.1815 18.3946 10.4765 18.3946C11.7715 18.3946 13.0134 17.8802 13.9291 16.9645C14.8448 16.0488 15.3592 14.8069 15.3592 13.5119C15.3592 12.2169 14.8448 10.975 13.9291 10.0593C13.0134 9.14358 11.7715 8.62915 10.4765 8.62915C9.1815 8.62915 7.93956 9.14358 7.02387 10.0593C6.10818 10.975 5.59375 12.2169 5.59375 13.5119Z" fill="white"/>
<path d="M10.4761 18.7876C7.57642 18.7876 5.21924 16.4304 5.21924 13.5307C5.21924 10.631 7.57642 8.25513 10.4761 8.25513C13.3758 8.25513 15.733 10.6123 15.733 13.512C15.733 16.4117 13.3758 18.7876 10.4761 18.7876ZM10.4761 9.00344C7.98799 9.00344 5.96755 11.0239 5.96755 13.512C5.96755 16.0001 7.98799 18.0206 10.4761 18.0206C12.9643 18.0206 14.9847 16.0001 14.9847 13.512C14.9847 11.0239 12.9643 9.00344 10.4761 9.00344Z" fill="#292B2D"/>
<path d="M8.10059 13.5119C8.10059 13.8239 8.16204 14.1328 8.28144 14.4211C8.40084 14.7093 8.57585 14.9713 8.79647 15.1919C9.01709 15.4125 9.279 15.5875 9.56726 15.7069C9.85552 15.8263 10.1645 15.8878 10.4765 15.8878C10.7885 15.8878 11.0974 15.8263 11.3857 15.7069C11.6739 15.5875 11.9359 15.4125 12.1565 15.1919C12.3771 14.9713 12.5521 14.7093 12.6715 14.4211C12.7909 14.1328 12.8524 13.8239 12.8524 13.5119C12.8524 12.8817 12.602 12.2774 12.1565 11.8319C11.7109 11.3863 11.1066 11.136 10.4765 11.136C9.84635 11.136 9.24203 11.3863 8.79647 11.8319C8.3509 12.2774 8.10059 12.8817 8.10059 13.5119Z" fill="#F86C6C"/>
<path d="M10.4761 16.262C8.96079 16.262 7.72607 15.0273 7.72607 13.512C7.72607 11.9967 8.96079 10.762 10.4761 10.762C11.9914 10.762 13.2262 11.9967 13.2262 13.512C13.2262 15.046 11.9914 16.262 10.4761 16.262ZM10.4761 11.529C9.37236 11.529 8.47438 12.427 8.47438 13.5307C8.47438 14.6345 9.37236 15.5137 10.4761 15.5137C11.5799 15.5137 12.4778 14.6158 12.4778 13.512C12.4778 12.4082 11.5799 11.529 10.4761 11.529Z" fill="#292B2D"/>
<path d="M23.609 2.69876L20.5784 5.71071L18.2212 5.76683L18.2773 3.40965L21.308 0.397705L21.2144 2.7923L23.609 2.69876Z" fill="#C2CDDC"/>
<path d="M18.2399 6.1411C18.1463 6.1411 18.0528 6.10368 17.978 6.02885C17.9031 5.95402 17.8657 5.86048 17.8657 5.74823L17.9218 3.39106C17.9218 3.29752 17.9593 3.20398 18.0341 3.12915L21.0647 0.117196C21.177 0.00494952 21.3454 -0.0137582 21.4763 0.0423651C21.626 0.0984883 21.7008 0.24815 21.7008 0.397813L21.626 2.38084L23.609 2.306C23.7587 2.306 23.9083 2.38084 23.9645 2.5305C24.0206 2.68016 24.0019 2.82982 23.8896 2.94207L20.859 5.95402C20.7841 6.02885 20.6906 6.06627 20.5971 6.06627L18.2399 6.1411ZM18.6514 3.57813L18.614 5.39279L20.4287 5.35537L22.6736 3.11044L21.2331 3.16656C21.1209 3.16656 21.0273 3.12915 20.9525 3.05432C20.8777 2.97948 20.8403 2.88595 20.8403 2.7737L20.8964 1.3332L18.6514 3.57813Z" fill="#292B2D"/>
<path d="M10.6632 13.6054C10.5697 13.6054 10.4761 13.568 10.4013 13.4931C10.2516 13.3435 10.2516 13.119 10.4013 12.9693L22.711 0.65961C22.8607 0.509948 23.0852 0.509948 23.2348 0.65961C23.3845 0.809272 23.3845 1.03377 23.2348 1.18343L10.9251 13.4931C10.8503 13.568 10.7568 13.6054 10.6632 13.6054Z" fill="#292B2D"/>
<path d="M22.075 4.42003H19.8488C19.643 4.42003 19.4746 4.25166 19.4746 4.04587V1.85707C19.4746 1.65128 19.643 1.48291 19.8488 1.48291C20.0545 1.48291 20.2229 1.65128 20.2229 1.85707V3.67172H22.075C22.2808 3.67172 22.4491 3.84009 22.4491 4.04587C22.4491 4.25166 22.2808 4.42003 22.075 4.42003Z" fill="#292B2D"/>
</g>
<defs>
<clipPath id="clip0_21_54">
<rect width="24" height="24" fill="white"/>
</clipPath>
</defs>
</svg>
