<svg width="32" height="32" viewBox="0 0 32 32" fill="none" xmlns="http://www.w3.org/2000/svg">
<path d="M24.0001 17.3332L22.2672 8.66893C22.1704 8.18494 22.122 7.94294 22.0043 7.74587C21.9003 7.57165 21.7579 7.42347 21.5879 7.31263C21.3956 7.18726 21.1557 7.12935 20.6759 7.01354L2.66675 2.6665M2.66675 2.6665L7.01378 20.6756C7.1296 21.1555 7.1875 21.3954 7.31288 21.5876C7.42371 21.7576 7.57189 21.9001 7.74612 22.0041C7.94319 22.1218 8.18518 22.1702 8.66918 22.267L17.3334 23.9998M2.66675 2.6665L12.7814 12.7812M21.5086 27.8247L27.8249 21.5083C28.3529 20.9803 28.617 20.7163 28.7159 20.4119C28.8029 20.1441 28.8029 19.8556 28.7159 19.5878C28.617 19.2834 28.3529 19.0194 27.8249 18.4913L26.8419 17.5083C26.3139 16.9803 26.0499 16.7163 25.7454 16.6174C25.4776 16.5304 25.1892 16.5304 24.9214 16.6174C24.617 16.7163 24.3529 16.9803 23.8249 17.5083L17.5086 23.8247C16.9806 24.3527 16.7165 24.6167 16.6176 24.9211C16.5306 25.1889 16.5306 25.4774 16.6176 25.7452C16.7165 26.0496 16.9806 26.3136 17.5086 26.8417L18.4916 27.8247C19.0196 28.3527 19.2836 28.6167 19.5881 28.7156C19.8558 28.8026 20.1443 28.8026 20.4121 28.7156C20.7165 28.6167 20.9806 28.3527 21.5086 27.8247ZM17.3334 14.6665C17.3334 16.1393 16.1395 17.3332 14.6667 17.3332C13.194 17.3332 12.0001 16.1393 12.0001 14.6665C12.0001 13.1937 13.194 11.9998 14.6667 11.9998C16.1395 11.9998 17.3334 13.1937 17.3334 14.6665Z" stroke="#292B2D" stroke-width="2" stroke-linecap="round" stroke-linejoin="round"/>
</svg>
