<svg width="24" height="24" viewBox="0 0 24 24" fill="none" xmlns="http://www.w3.org/2000/svg">
<g clip-path="url(#clip0_26_234)">
<path d="M1.28244 0.567627H15.8191C16.321 0.567627 16.7299 0.976586 16.7299 1.47849V22.5213C16.7299 23.0232 16.321 23.4321 15.8191 23.4321H1.28244C0.780541 23.4321 0.371582 23.0232 0.371582 22.5213V1.47849C0.371582 0.976586 0.780541 0.567627 1.28244 0.567627Z" fill="white"/>
<path d="M15.8193 23.8041H1.28264C0.57626 23.8041 0 23.2279 0 22.5215V1.47869C0 0.772305 0.57626 0.196045 1.28264 0.196045H15.8193C16.5257 0.196045 17.1019 0.772305 17.1019 1.47869V22.5215C17.1019 23.2279 16.5257 23.8041 15.8193 23.8041ZM1.28264 0.939606C0.985219 0.939606 0.743561 1.18126 0.743561 1.47869V22.5215C0.743561 22.8189 0.985219 23.0606 1.28264 23.0606H15.8193C16.1167 23.0606 16.3583 22.8189 16.3583 22.5215V1.47869C16.3583 1.18126 16.1167 0.939606 15.8193 0.939606H1.28264Z" fill="#292B2D"/>
<path d="M6.35766 20.1791C6.26472 20.1791 6.17177 20.1419 6.09742 20.0676L3.95968 17.9484C3.81097 17.7997 3.81097 17.5767 3.95968 17.4279C4.10839 17.2792 4.33146 17.2792 4.48017 17.4279L6.61791 19.5657C6.76662 19.7144 6.76662 19.9375 6.61791 20.0862C6.54355 20.1419 6.45061 20.1791 6.35766 20.1791Z" fill="#292B2D"/>
<path d="M4.18233 20.235C4.08938 20.235 3.99644 20.1978 3.92208 20.1235C3.77337 19.9747 3.77337 19.7517 3.92208 19.603L6.15277 17.3723C6.30148 17.2236 6.52455 17.2236 6.67326 17.3723C6.82197 17.521 6.82197 17.7441 6.67326 17.8928L4.44257 20.1235C4.36822 20.1978 4.27527 20.235 4.18233 20.235Z" fill="#292B2D"/>
<path d="M9.68466 16.833L22.1765 4.3412C22.381 4.1739 22.697 4.19249 22.8643 4.39697L23.4777 5.01041C23.6822 5.17771 23.7008 5.49372 23.5335 5.6982L11.0417 18.19L9.1084 18.7477L9.68466 16.833Z" fill="#1947F5"/>
<path d="M9.10865 19.1196C9.0157 19.1196 8.92276 19.0824 8.8484 19.008C8.75546 18.9151 8.71828 18.7664 8.75546 18.6363L9.33172 16.7216C9.35031 16.6658 9.38748 16.6101 9.42466 16.5729L21.9165 4.08104L21.9351 4.06246C22.2883 3.76503 22.8274 3.8208 23.1248 4.1554L23.7196 4.75025C24.0542 5.04767 24.11 5.58676 23.8126 5.93995C23.8126 5.95854 23.794 5.95854 23.794 5.95854L11.3022 18.4504C11.265 18.4875 11.2092 18.5247 11.1349 18.5433L9.20159 19.101C9.18301 19.1196 9.14583 19.1196 9.10865 19.1196ZM10.0195 17.019L9.66632 18.2087L10.856 17.8555L23.2735 5.43804C23.3107 5.38228 23.2921 5.32651 23.2549 5.27074L23.2363 5.25215L22.6229 4.63872L22.6043 4.62013C22.5671 4.58295 22.4928 4.56436 22.437 4.60154L10.0195 17.019Z" fill="#292B2D"/>
<path d="M19.3328 12.3903C19.2399 12.3903 19.1469 12.3531 19.0726 12.2787C18.9239 12.13 18.9239 11.907 19.0726 11.7582L22.4186 8.41222L20.2623 6.2559C20.1136 6.10718 20.1136 5.88411 20.2623 5.7354C20.411 5.58669 20.6341 5.58669 20.7828 5.7354L23.2179 8.17057C23.2923 8.24492 23.3295 8.33787 23.3295 8.43081C23.3295 8.52376 23.2923 8.6167 23.2179 8.69106L19.6117 12.2973C19.5373 12.3717 19.4258 12.3903 19.3328 12.3903ZM13.5702 4.60147H3.68086C3.47638 4.60147 3.30908 4.43417 3.30908 4.22969C3.30908 4.02521 3.47638 3.85791 3.68086 3.85791H13.5702C13.7747 3.85791 13.942 4.02521 13.942 4.22969C13.942 4.43417 13.7747 4.60147 13.5702 4.60147ZM13.5702 6.73921H3.68086C3.47638 6.73921 3.30908 6.57191 3.30908 6.36743C3.30908 6.16295 3.47638 5.99565 3.68086 5.99565H13.5702C13.7747 5.99565 13.942 6.16295 13.942 6.36743C13.942 6.57191 13.7747 6.73921 13.5702 6.73921ZM13.5702 8.96989H3.68086C3.47638 8.96989 3.30908 8.80259 3.30908 8.59811C3.30908 8.39363 3.47638 8.22633 3.68086 8.22633H13.5702C13.7747 8.22633 13.942 8.39363 13.942 8.59811C13.942 8.80259 13.7747 8.96989 13.5702 8.96989Z" fill="#292B2D"/>
<path d="M13.5702 11.1078H3.68086C3.47638 11.1078 3.30908 10.9405 3.30908 10.736C3.30908 10.5316 3.47638 10.3643 3.68086 10.3643H13.5702C13.7747 10.3643 13.942 10.5316 13.942 10.736C13.942 10.9405 13.7747 11.1078 13.5702 11.1078Z" fill="#292B2D"/>
<path d="M8.21659 13.5058H3.68086C3.47638 13.5058 3.30908 13.3385 3.30908 13.134C3.30908 12.9295 3.47638 12.7622 3.68086 12.7622H8.198C8.40248 12.7622 8.56978 12.9295 8.56978 13.134C8.56978 13.3385 8.42107 13.5058 8.21659 13.5058Z" fill="#292B2D"/>
</g>
<defs>
<clipPath id="clip0_26_234">
<rect width="24" height="24" fill="white"/>
</clipPath>
</defs>
</svg>
