<svg width="32" height="32" viewBox="0 0 32 32" fill="none" xmlns="http://www.w3.org/2000/svg">
<path d="M6.00008 29.3332V22.6665M6.00008 9.33317V2.6665M2.66675 5.99984H9.33341M2.66675 25.9998H9.33341M17.3334 3.99984L15.0212 10.0117C14.6452 10.9893 14.4572 11.4781 14.1648 11.8893C13.9057 12.2537 13.5873 12.5721 13.2229 12.8312C12.8117 13.1236 12.3229 13.3116 11.3452 13.6876L5.33341 15.9998L11.3452 18.3121C12.3229 18.6881 12.8117 18.8761 13.2229 19.1685C13.5873 19.4276 13.9057 19.746 14.1648 20.1104C14.4572 20.5216 14.6452 21.0104 15.0212 21.988L17.3334 27.9998L19.6457 21.988C20.0217 21.0104 20.2097 20.5216 20.502 20.1104C20.7612 19.746 21.0796 19.4276 21.444 19.1685C21.8551 18.8761 22.344 18.6881 23.3216 18.3121L29.3334 15.9998L23.3216 13.6876C22.344 13.3116 21.8551 13.1236 21.444 12.8312C21.0796 12.5721 20.7612 12.2537 20.502 11.8893C20.2097 11.4781 20.0217 10.9893 19.6457 10.0117L17.3334 3.99984Z" stroke="#292B2D" stroke-width="2" stroke-linecap="round" stroke-linejoin="round"/>
</svg>
